<?xml version="1.0" encoding="utf-8" ?>
<!-- Generator: Assembly 1.0 - http://assemblyapp.co -->
<svg version="1.1" xmlns="http://www.w3.org/2000/svg" xmlns:xlink="http://www.w3.org/1999/xlink" width="300" height="300" viewBox="0 0 300 300">
	<g id="widget" transform="matrix(1,0,0,1,150,150)">
		<path d="M47.064,41.7834 L-36.7405,22.7459 L-9.30315,-59.1504 L57.7018,-43.9291 Z" fill="#ff6a62" fill-opacity="1" />
		<path d="M-54.9953,24.7384 C-62.1115,57.0864 -41.6858,89.0336 -9.33783,96.1498 C23.0101,103.266 54.9573,82.8403 62.0735,50.4923 L-54.9953,24.7384 Z" fill="#ff6a62" fill-opacity="1" />
		<path d="M80.5967,-125.777 L3.98438,-143.044 L-13.2831,-66.4318 L63.3292,-49.1644 L80.5967,-125.777 Z M10.7041,-101.277 C11.6479,-105.465 15.8463,-108.185 20.1111,-107.224 C24.376,-106.263 27.0189,-102.082 26.0576,-97.817 C25.1138,-93.6297 20.9155,-90.9092 16.6506,-91.8705 C12.3858,-92.8317 9.76036,-97.0902 10.7041,-101.277 Z M41.3335,-94.374 C42.2773,-98.5613 46.4757,-101.282 50.7405,-100.32 C54.9278,-99.3767 57.6483,-95.1784 56.687,-90.9135 C55.7432,-86.7262 51.5449,-84.0058 47.28,-84.967 C43.0152,-85.9283 40.3898,-90.1867 41.3335,-94.374 Z" fill="#ff6a62" fill-opacity="1" />
		<path d="M-33.3253,104.188 L-37.8376,123.44 L-33.4605,123.525 L-30.7402,111.932 C-30.1919,111.882 -29.5833,111.864 -29.3402,111.868 C-27.1212,111.912 -26.4864,113.658 -26.528,115.785 C-26.5733,118.095 -27.4254,121.241 -29.6444,121.198 C-30.3435,121.184 -30.9151,120.869 -31.6595,120.064 C-31.9468,120.757 -32.0797,121.333 -32.0892,121.819 C-32.1255,123.673 -30.431,124.102 -29.1239,124.127 C-24.0477,124.226 -22.3529,118.421 -22.2958,115.503 C-22.2512,113.223 -23.2132,111.107 -25.7868,110.539 C-23.789,109.453 -22.6877,107.559 -22.6526,105.766 C-22.6038,103.273 -24.5642,100.893 -29.0324,100.806 C-34.7774,100.693 -40.1419,104.45 -40.224,108.645 C-40.2638,110.682 -39.0324,111.466 -37.0263,111.505 C-37.0513,111.231 -37.4417,110.98 -37.4114,109.43 C-37.3132,104.414 -33.2241,102.123 -29.6677,102.192 C-26.7801,102.249 -25.6857,103.821 -25.7196,105.554 C-25.7643,107.833 -27.7614,110.44 -30.1931,110.392 L-30.3755,110.389 L-28.8148,103.669 Z" fill="#ff6a62" fill-opacity="1" />
		<path d="M-11.5208,108.751 L-13.7787,118.467 C-14.2644,119.978 -15.0773,121.118 -16.2628,121.095 C-16.9315,121.082 -17.164,120.53 -17.1503,119.831 C-17.145,119.557 -17.1092,119.284 -17.0425,118.981 L-14.6517,108.689 L-19.0287,108.604 L-21.2867,118.321 C-21.4529,119.047 -21.5572,119.714 -21.5685,120.292 C-21.6185,122.845 -20.2113,123.967 -18.3875,124.003 C-17.1108,124.028 -15.4009,123.666 -13.8323,121.203 C-13.6868,123.091 -12.6121,124.116 -10.8796,124.15 C-9.23815,124.182 -6.48938,123.567 -4.65982,118.646 L-5.93647,118.621 C-6.42216,120.132 -7.26547,121.271 -8.45093,121.248 C-9.30203,121.231 -9.69183,120.95 -9.67517,120.099 C-9.66982,119.825 -9.63347,119.522 -9.53455,119.128 L-7.14375,108.836 Z" fill="#ff6a62" fill-opacity="1" />
		<path d="M2.16291,108.745 C-4.09875,108.622 -6.30848,115.877 -6.37689,119.373 C-6.44471,122.838 -4.43432,124.215 -1.60746,124.27 C2.1313,124.343 5.23995,120.877 5.83635,115.263 C8.06242,114.942 10.0864,114.069 11.2659,112.846 L11.0084,112.02 C9.68349,112.906 7.68988,113.779 6.29164,113.752 C6.20045,113.75 6.07887,113.748 5.95847,113.684 C6.02093,110.493 4.777,108.796 2.16291,108.745 Z M-0.338059,121.558 C-1.49312,121.536 -1.87935,121.072 -1.84009,119.066 C-1.78179,116.087 0.211648,110.561 2.36979,110.604 C3.1601,110.619 3.45455,111.111 3.49035,112.389 C2.93846,112.622 2.5326,113.161 2.51594,114.012 C2.50404,114.62 2.67631,115.141 3.31166,115.305 C2.75512,118.882 1.15137,121.588 -0.338059,121.558 Z" fill="#ff6a62" fill-opacity="1" />
		<path d="M9.66547,109.165 L7.40756,118.882 C7.2413,119.609 7.13702,120.276 7.12572,120.853 C7.07575,123.406 8.48297,124.529 10.3068,124.564 C11.3402,124.585 12.7134,124.338 14.0496,122.874 L13.7195,124.205 C10.8152,125 8.42699,125.835 8.37167,128.662 C8.333,130.638 10.04,131.979 11.8942,132.015 C13.9004,132.054 16.5305,131.285 17.5275,126.956 L21.5809,109.398 L17.1734,109.312 L14.9155,119.029 C14.4298,120.54 13.6169,121.68 12.4314,121.656 C11.7323,121.643 11.532,121 11.5457,120.301 C11.5505,120.058 11.5862,119.785 11.6518,119.543 L14.0426,109.251 Z M10.0518,128.269 C10.0839,126.628 11.5602,125.775 13.4877,125.174 L13.0878,126.96 C12.6576,128.746 11.856,129.308 11.248,129.296 C10.5793,129.283 10.0435,128.695 10.0518,128.269 Z" fill="#ff6a62" fill-opacity="1" />
		<path d="M-27.2377,134.399 C-27.2134,134.258 -27.2008,134.105 -27.1998,133.918 C-27.1955,133.155 -27.8615,132.647 -28.5773,132.643 C-29.3517,132.639 -30.3625,132.95 -30.7239,134.626 L-32.181,141.317 C-33.2976,141.651 -34.203,141.987 -34.209,143.066 C-34.2133,143.829 -33.5473,144.337 -32.8315,144.341 C-32.0571,144.345 -31.0815,144.034 -30.7201,142.358 L-29.3354,136.03 L-28.4671,136.034 L-28.3824,135.566 L-29.2389,135.561 L-29.0343,134.635 C-28.8656,133.85 -28.4657,133.676 -28.2076,133.677 C-27.9729,133.679 -27.7624,133.809 -27.7639,134.079 C-27.7645,134.184 -27.7768,134.278 -27.7892,134.396 Z M-33.5627,142.905 C-33.5592,142.272 -33.0059,141.946 -32.2653,141.704 L-32.4217,142.384 C-32.5781,143.075 -32.8492,143.297 -33.0956,143.295 C-33.3537,143.294 -33.5637,143.07 -33.5627,142.905 Z" fill="#ff6a62" fill-opacity="1" />
		<path d="M-25.5423,135.476 C-27.9594,135.462 -28.773,138.274 -28.7805,139.623 C-28.788,140.961 -28.0047,141.482 -26.9135,141.488 C-25.4703,141.496 -24.2894,140.141 -24.0895,137.972 C-23.2322,137.836 -22.4558,137.488 -22.0073,137.009 L-22.1111,136.692 C-22.6176,137.041 -23.3822,137.389 -23.922,137.386 C-23.9572,137.386 -24.0041,137.385 -24.0509,137.362 C-24.044,136.13 -24.5332,135.482 -25.5423,135.476 Z M-26.4383,140.434 C-26.8842,140.432 -27.0357,140.255 -27.0314,139.481 C-27.025,138.331 -26.2855,136.187 -25.4524,136.192 C-25.1474,136.194 -25.0311,136.382 -25.0104,136.875 C-25.2221,136.968 -25.3758,137.178 -25.3776,137.507 C-25.379,137.741 -25.3097,137.941 -25.0636,138.001 C-25.2591,139.385 -25.8634,140.437 -26.4383,140.434 Z" fill="#ff6a62" fill-opacity="1" />
		<path d="M-22.6448,135.598 L-23.9212,141.457 L-22.2316,141.467 L-21.2681,137.013 C-20.9732,136.745 -20.761,136.57 -20.409,136.572 C-20.057,136.574 -20.3899,137.347 -19.7328,137.351 C-19.1579,137.354 -18.8855,136.909 -18.8832,136.499 C-18.8808,136.053 -19.1599,135.617 -19.6879,135.614 C-20.2511,135.611 -20.6991,135.984 -21.1117,136.334 L-20.9551,135.607 Z" fill="#ff6a62" fill-opacity="1" />
		<path d="M-11.8103,132.748 C-11.9628,132.736 -12.1153,132.723 -12.2795,132.722 C-14.239,132.711 -16.4063,134.189 -16.415,135.75 C-16.4197,136.595 -15.9755,136.89 -15.1659,136.895 C-15.177,136.789 -15.329,136.695 -15.3257,136.096 C-15.3185,134.805 -14.7502,133.893 -13.469,133.502 L-13.5137,141.516 L-11.7303,141.525 L-8.41957,132.802 L-9.24091,132.798 L-11.745,139.965 Z" fill="#ff6a62" fill-opacity="1" />
		<path d="M-5.57268,135.693 L-6.39158,139.455 C-6.57086,140.041 -6.87842,140.485 -7.33602,140.482 C-7.59415,140.481 -7.68684,140.269 -7.68533,139.999 C-7.68474,139.894 -7.67242,139.788 -7.6483,139.671 L-6.78122,135.686 L-8.47083,135.677 L-9.28973,139.439 C-9.34997,139.72 -9.38661,139.978 -9.38785,140.201 C-9.39336,141.187 -8.84425,141.612 -8.14024,141.616 C-7.64744,141.619 -6.98952,141.47 -6.39748,140.511 C-6.33114,141.239 -5.9109,141.628 -5.2421,141.632 C-4.6085,141.636 -3.55105,141.383 -2.87157,139.475 L-3.36437,139.472 C-3.54365,140.058 -3.86294,140.502 -4.32054,140.499 C-4.64907,140.497 -4.80102,140.391 -4.79918,140.062 C-4.79859,139.957 -4.78621,139.839 -4.75015,139.687 L-3.88307,135.702 Z" fill="#ff6a62" fill-opacity="1" />
		<path d="M-1.79256,139.563 C-1.79197,139.457 -1.77951,139.328 -1.76712,139.211 C-0.358659,139.137 0.937779,138.111 0.945379,136.75 C0.948655,136.164 0.705268,135.622 -0.339003,135.617 C-2.74435,135.603 -3.52281,138.427 -3.53034,139.776 C-3.53774,141.102 -2.81329,141.646 -1.72208,141.652 C-0.783414,141.657 0.0636174,141.263 0.317488,139.927 C-0.0598151,140.253 -0.624655,140.543 -1.07052,140.541 C-1.48119,140.538 -1.79668,140.302 -1.79256,139.563 Z M0.0420399,136.722 C0.0365363,137.707 -0.766379,138.606 -1.68184,138.648 C-1.42922,137.535 -0.835277,136.236 -0.248608,136.239 C-0.0256741,136.24 0.0436779,136.428 0.0420399,136.722 Z" fill="#ff6a62" fill-opacity="1" />
		<path d="M1.28697,140.718 C1.28409,141.234 1.69246,141.647 2.20873,141.65 C2.725,141.653 3.14969,141.245 3.15258,140.729 C3.15546,140.212 2.73542,139.788 2.21915,139.785 C1.70288,139.782 1.28985,140.202 1.28697,140.718 Z" fill="#ff6a62" fill-opacity="1" />
		<path d="M4.84656,135.751 L3.55807,141.658 C2.66482,141.923 1.62954,142.41 1.62403,143.395 C1.61977,144.158 2.21608,144.537 2.93182,144.541 C3.70622,144.545 4.69359,144.234 5.05496,142.558 L5.23568,141.714 C5.96426,141.519 6.85849,141.078 7.32474,139.532 L6.83194,139.529 C6.4977,140.548 6.06134,140.944 5.34416,141.198 L6.53617,135.761 Z M4.98441,134.18 C4.98153,134.696 5.3899,135.109 5.90617,135.112 C6.42244,135.115 6.84713,134.706 6.85002,134.19 C6.8529,133.674 6.43286,133.249 5.91659,133.246 C5.40032,133.243 4.98729,133.663 4.98441,134.18 Z M2.27028,143.235 C2.27291,142.765 2.82608,142.463 3.42573,142.244 L3.35343,142.584 C3.19703,143.275 2.91346,143.625 2.66706,143.624 C2.40892,143.623 2.26937,143.399 2.27028,143.235 Z" fill="#ff6a62" fill-opacity="1" />
		<path d="M8.5433,135.643 C8.17314,136.791 7.74425,137.95 7.0807,139.108 C6.76305,139.259 6.45575,139.656 6.45274,140.195 C6.44874,140.911 6.96062,141.7 8.15742,141.707 C9.11956,141.712 10.5069,141.216 10.5154,139.69 C10.5198,138.916 10.405,138.458 10.2811,135.418 Z M7.91141,139.535 C7.91252,139.335 7.79598,139.194 7.64384,139.123 C8.03523,138.374 8.3677,137.672 8.60662,136.91 C8.71387,138.718 8.81744,139.082 8.81403,139.692 C8.80944,140.514 8.3034,140.781 7.78713,140.778 C7.27086,140.775 7.0729,140.504 7.07598,139.953 C7.13399,140.07 7.2746,140.106 7.39193,140.107 C7.697,140.109 7.90984,139.816 7.91141,139.535 Z" fill="#ff6a62" fill-opacity="1" />
	</g>
</svg>