<?xml version="1.0" encoding="utf-8" ?>
<!-- Generator: Assembly 1.0 - http://assemblyapp.co -->
<svg version="1.1" xmlns="http://www.w3.org/2000/svg" xmlns:xlink="http://www.w3.org/1999/xlink" width="300" height="300" viewBox="0 0 300 300">
	<g id="widget" transform="matrix(1,0,0,1,150,150)">
		<path d="M15.1548,39.3631 L-24.8483,30.0771 L-11.5528,-8.99525 L20.4312,-1.57079 Z" fill="#ff6a62" fill-opacity="1" />
		<path d="M-35.7976,35.5815 C-39.7216,52.3591 -29.3163,69.1176 -12.5387,73.0416 C4.23898,76.9655 20.9974,66.5602 24.9214,49.7826 L-35.7976,35.5815 Z" fill="#ff6a62" fill-opacity="1" />
		<path d="M33.256,-42.5651 L-2.78644,-51.276 L-11.4973,-15.2336 L24.5451,-6.52275 L33.256,-42.5651 Z M0.0811943,-31.5091 C0.557295,-33.479 2.55917,-34.7327 4.56558,-34.2478 C6.57199,-33.7629 7.78918,-31.7698 7.30427,-29.7634 C6.82817,-27.7935 4.82629,-26.5398 2.81988,-27.0247 C0.813471,-27.5096 -0.394906,-29.5392 0.0811943,-31.5091 Z M14.4909,-28.0265 C14.967,-29.9965 16.9688,-31.2501 18.9752,-30.7652 C20.9452,-30.2891 22.1988,-28.2872 21.7139,-26.2808 C21.2378,-24.3109 19.236,-23.0572 17.2295,-23.5421 C15.2231,-24.0271 14.0148,-26.0566 14.4909,-28.0265 Z" fill="#ff6a62" fill-opacity="1" />
		<path d="M-25.0444,81.5347 L-27.9501,95.1228 L-24.8735,95.1228 L-23.1216,86.94 C-22.737,86.8973 -22.3097,86.8759 -22.1388,86.8759 C-20.5792,86.8759 -20.1091,88.0937 -20.1091,89.5893 C-20.1091,91.213 -20.6646,93.435 -22.2243,93.435 C-22.7157,93.435 -23.1216,93.2213 -23.6557,92.6658 C-23.848,93.1572 -23.9335,93.5632 -23.9335,93.905 C-23.9335,95.2083 -22.737,95.486 -21.8183,95.486 C-18.2504,95.486 -17.1394,91.3839 -17.1394,89.3329 C-17.1394,87.7305 -17.8444,86.2563 -19.6605,85.8931 C-18.2717,85.1026 -17.524,83.7566 -17.524,82.4961 C-17.524,80.7442 -18.9341,79.0991 -22.0747,79.0991 C-26.1127,79.0991 -29.8302,81.8124 -29.8302,84.7608 C-29.8302,86.1923 -28.9542,86.7264 -27.5441,86.7264 C-27.5655,86.5341 -27.8433,86.3632 -27.8433,85.2736 C-27.8433,81.7483 -25.0017,80.0819 -22.502,80.0819 C-20.4723,80.0819 -19.6818,81.1715 -19.6818,82.3893 C-19.6818,83.9917 -21.0492,85.8504 -22.7584,85.8504 L-22.8866,85.8504 L-21.8824,81.1074 Z" fill="#ff6a62" fill-opacity="1" />
		<path d="M-9.66166,84.4403 L-11.1145,91.2985 C-11.4349,92.3667 -11.9904,93.1786 -12.8237,93.1786 C-13.2937,93.1786 -13.4646,92.794 -13.4646,92.3026 C-13.4646,92.1104 -13.4433,91.9181 -13.4005,91.7044 L-11.8622,84.4403 L-14.9388,84.4403 L-16.3916,91.2985 C-16.4985,91.8112 -16.5625,92.2813 -16.5625,92.6872 C-16.5625,94.4819 -15.5584,95.251 -14.2765,95.251 C-13.3792,95.251 -12.1827,94.9733 -11.1145,93.2213 C-10.9863,94.546 -10.2171,95.251 -8.99934,95.251 C-7.84563,95.251 -5.92278,94.781 -4.70498,91.2985 L-5.60231,91.2985 C-5.92278,92.3667 -6.49964,93.1786 -7.33287,93.1786 C-7.93109,93.1786 -8.20884,92.9863 -8.20884,92.3881 C-8.20884,92.1958 -8.18747,91.9822 -8.12338,91.7044 L-6.5851,84.4403 Z" fill="#ff6a62" fill-opacity="1" />
		<path d="M-0.047412,84.248 C-4.4486,84.248 -5.90142,89.3756 -5.90142,91.8326 C-5.90142,94.2682 -4.46996,95.2083 -2.48302,95.2083 C0.144873,95.2083 2.28137,92.7299 2.62321,88.7774 C4.18286,88.521 5.59294,87.8801 6.40481,87.0041 L6.21253,86.4273 C5.29383,87.0682 3.90511,87.7092 2.92232,87.7092 C2.85823,87.7092 2.77277,87.7092 2.68731,87.6664 C2.68731,85.4231 1.78998,84.248 -0.047412,84.248 Z M-1.62842,93.2854 C-2.44029,93.2854 -2.71804,92.965 -2.71804,91.5549 C-2.71804,89.4611 -1.39341,85.5513 0.123508,85.5513 C0.678998,85.5513 0.892647,85.8931 0.935377,86.7905 C0.550808,86.9614 0.273063,87.346 0.273063,87.9442 C0.273063,88.3715 0.401253,88.7347 0.849917,88.8415 C0.508078,91.3626 -0.581537,93.2854 -1.62842,93.2854 Z" fill="#ff6a62" fill-opacity="1" />
		<path d="M5.22974,84.4403 L3.77692,91.2985 C3.6701,91.8112 3.606,92.2813 3.606,92.6872 C3.606,94.4819 4.61015,95.251 5.89205,95.251 C6.61846,95.251 7.57989,95.0587 8.49858,94.0118 L8.28493,94.9519 C6.25526,95.5501 4.58879,96.1697 4.58879,98.1566 C4.58879,99.5454 5.80659,100.464 7.10986,100.464 C8.51995,100.464 10.3573,99.8872 10.9983,96.832 L13.6048,84.4403 L10.5069,84.4403 L9.05407,91.2985 C8.7336,92.3667 8.17811,93.1786 7.34487,93.1786 C6.85348,93.1786 6.70392,92.7299 6.70392,92.2385 C6.70392,92.0676 6.72529,91.8753 6.76802,91.7044 L8.3063,84.4403 Z M5.76386,97.8575 C5.76386,96.7038 6.78938,96.0842 8.13538,95.6356 L7.879,96.8961 C7.60125,98.1566 7.04576,98.5626 6.61846,98.5626 C6.14843,98.5626 5.76386,98.1566 5.76386,97.8575 Z" fill="#ff6a62" fill-opacity="1" />
		<path d="M-21.8692,101.686 C-21.8529,101.588 -21.8447,101.483 -21.8447,101.352 C-21.8447,100.823 -22.3091,100.472 -22.8062,100.472 C-23.3439,100.472 -24.0446,100.692 -24.2891,101.857 L-25.275,106.51 C-26.049,106.746 -26.6764,106.982 -26.6764,107.732 C-26.6764,108.262 -26.212,108.612 -25.715,108.612 C-25.1772,108.612 -24.5009,108.392 -24.2565,107.227 L-23.3195,102.827 L-22.7165,102.827 L-22.6595,102.501 L-23.2543,102.501 L-23.1158,101.857 C-23.0017,101.311 -22.7247,101.189 -22.5454,101.189 C-22.3825,101.189 -22.2358,101.279 -22.2358,101.466 C-22.2358,101.54 -22.244,101.605 -22.2521,101.686 Z M-26.2283,107.618 C-26.2283,107.178 -25.8453,106.95 -25.332,106.779 L-25.4379,107.251 C-25.5439,107.732 -25.7313,107.887 -25.9024,107.887 C-26.0816,107.887 -26.2283,107.732 -26.2283,107.618 Z" fill="#ff6a62" fill-opacity="1" />
		<path d="M-20.6877,102.428 C-22.3662,102.428 -22.9202,104.383 -22.9202,105.32 C-22.9202,106.249 -22.3743,106.608 -21.6166,106.608 C-20.6144,106.608 -19.7996,105.662 -19.6692,104.155 C-19.0744,104.057 -18.5367,103.813 -18.227,103.479 L-18.3004,103.259 C-18.6507,103.503 -19.1803,103.748 -19.5551,103.748 C-19.5796,103.748 -19.6122,103.748 -19.6448,103.731 C-19.6448,102.876 -19.987,102.428 -20.6877,102.428 Z M-21.2907,105.874 C-21.6003,105.874 -21.7062,105.752 -21.7062,105.214 C-21.7062,104.416 -21.201,102.925 -20.6225,102.925 C-20.4107,102.925 -20.3292,103.055 -20.3129,103.397 C-20.4596,103.462 -20.5655,103.609 -20.5655,103.837 C-20.5655,104 -20.5166,104.139 -20.3455,104.18 C-20.4759,105.141 -20.8914,105.874 -21.2907,105.874 Z" fill="#ff6a62" fill-opacity="1" />
		<path d="M-18.6752,102.501 L-19.5389,106.575 L-18.3656,106.575 L-17.7137,103.479 C-17.51,103.291 -17.3634,103.169 -17.1189,103.169 C-16.8745,103.169 -17.1026,103.707 -16.6463,103.707 C-16.2471,103.707 -16.0597,103.397 -16.0597,103.112 C-16.0597,102.803 -16.2552,102.501 -16.6219,102.501 C-17.013,102.501 -17.3226,102.762 -17.6078,103.006 L-17.5019,102.501 Z" fill="#ff6a62" fill-opacity="1" />
		<path d="M-11.1628,100.48 C-11.2687,100.472 -11.3747,100.464 -11.4887,100.464 C-12.8494,100.464 -14.3486,101.499 -14.3486,102.583 C-14.3486,103.169 -14.039,103.373 -13.4768,103.373 C-13.485,103.3 -13.5909,103.234 -13.5909,102.819 C-13.5909,101.923 -13.1998,101.287 -12.3117,101.01 L-12.3117,106.575 L-11.0732,106.575 L-8.80806,100.505 L-9.37842,100.505 L-11.0895,105.491 Z" fill="#ff6a62" fill-opacity="1" />
		<path d="M-6.81998,102.501 L-7.37403,105.117 C-7.49625,105.524 -7.7081,105.834 -8.02587,105.834 C-8.20512,105.834 -8.2703,105.687 -8.2703,105.499 C-8.2703,105.426 -8.26216,105.353 -8.24586,105.271 L-7.65921,102.501 L-8.83251,102.501 L-9.38657,105.117 C-9.42731,105.312 -9.45175,105.491 -9.45175,105.646 C-9.45175,106.331 -9.0688,106.624 -8.57992,106.624 C-8.23771,106.624 -7.78143,106.518 -7.37403,105.85 C-7.32515,106.355 -7.03182,106.624 -6.56739,106.624 C-6.1274,106.624 -5.39409,106.445 -4.92966,105.117 L-5.27187,105.117 C-5.39409,105.524 -5.61409,105.834 -5.93185,105.834 C-6.16,105.834 -6.26592,105.76 -6.26592,105.532 C-6.26592,105.459 -6.25777,105.377 -6.23333,105.271 L-5.64668,102.501 Z" fill="#ff6a62" fill-opacity="1" />
		<path d="M-4.18006,105.174 C-4.18006,105.1 -4.17191,105.011 -4.16376,104.929 C-3.18601,104.872 -2.28974,104.155 -2.28974,103.21 C-2.28974,102.803 -2.46085,102.428 -3.18601,102.428 C-4.85633,102.428 -5.38595,104.391 -5.38595,105.328 C-5.38595,106.249 -4.88078,106.624 -4.12302,106.624 C-3.47119,106.624 -2.88454,106.347 -2.71343,105.418 C-2.97417,105.646 -3.36526,105.85 -3.67489,105.85 C-3.96006,105.85 -4.18006,105.687 -4.18006,105.174 Z M-2.91713,103.194 C-2.91713,103.878 -3.47119,104.505 -4.10672,104.538 C-3.93562,103.764 -3.52822,102.86 -3.12083,102.86 C-2.96602,102.86 -2.91713,102.99 -2.91713,103.194 Z" fill="#ff6a62" fill-opacity="1" />
		<path d="M-2.03716,105.964 C-2.03716,106.322 -1.75198,106.608 -1.39347,106.608 C-1.03496,106.608 -0.74164,106.322 -0.74164,105.964 C-0.74164,105.605 -1.03496,105.312 -1.39347,105.312 C-1.75198,105.312 -2.03716,105.605 -2.03716,105.964 Z" fill="#ff6a62" fill-opacity="1" />
		<path d="M0.415363,102.501 L-0.456463,106.608 C-1.0757,106.795 -1.79272,107.137 -1.79272,107.822 C-1.79272,108.351 -1.37718,108.612 -0.880154,108.612 C-0.342393,108.612 0.342031,108.392 0.586468,107.227 L0.708687,106.64 C1.21386,106.502 1.8331,106.192 2.15087,105.117 L1.80865,105.117 C1.58051,105.825 1.27904,106.102 0.782018,106.282 L1.58866,102.501 Z M0.504989,101.409 C0.504989,101.768 0.790166,102.053 1.14867,102.053 C1.50718,102.053 1.80051,101.768 1.80051,101.409 C1.80051,101.051 1.50718,100.757 1.14867,100.757 C0.790166,100.757 0.504989,101.051 0.504989,101.409 Z M-1.34458,107.708 C-1.34458,107.382 -0.961633,107.17 -0.54609,107.015 L-0.594978,107.251 C-0.7009,107.732 -0.89645,107.976 -1.06756,107.976 C-1.24681,107.976 -1.34458,107.822 -1.34458,107.708 Z" fill="#ff6a62" fill-opacity="1" />
		<path d="M2.98195,102.411 C2.72937,103.21 2.43604,104.017 1.97976,104.823 C1.75977,104.929 1.54792,105.206 1.54792,105.581 C1.54792,106.078 1.90643,106.624 2.73752,106.624 C3.40564,106.624 4.3671,106.274 4.3671,105.214 C4.3671,104.677 4.28562,104.359 4.18784,102.248 Z M2.55826,105.117 C2.55826,104.978 2.47678,104.88 2.37086,104.831 C2.63974,104.31 2.86788,103.821 3.03084,103.291 C3.11232,104.546 3.18565,104.799 3.18565,105.222 C3.18565,105.793 2.83529,105.98 2.47678,105.98 C2.11827,105.98 1.97976,105.793 1.97976,105.41 C2.0205,105.491 2.11827,105.516 2.19975,105.516 C2.4116,105.516 2.55826,105.312 2.55826,105.117 Z" fill="#ff6a62" fill-opacity="1" />
	</g>
</svg>