<svg width="100px" height="59px" viewBox="0 0 100 59" version="1.1" xmlns="http://www.w3.org/2000/svg" xmlns:xlink="http://www.w3.org/1999/xlink">
    <!-- Generator: Sketch 47.1 (45422) - http://www.bohemiancoding.com/sketch -->
    <desc>Created with Sketch.</desc>
    <defs></defs>
    <g id="Component-Creation" stroke="none" stroke-width="1" fill="none" fill-rule="evenodd">
        <g id="Desktop-HD-Copy-2" transform="translate(-1270.000000, -826.000000)" fill="#000000">
            <g id="Group-6" transform="translate(1270.000000, 826.000000)">
                <path style="fill:#00aaed;" d="M66.6575244,47.857539 C66.0610139,48.8828071 65.7627617,50.0737692 65.7627617,51.4304408 C65.7627617,53.4139939 66.4003228,55.0433167 67.6754641,56.3184579 C68.9506053,57.5935992 70.4736679,58.2311603 72.2446974,58.2311603 C74.015727,58.2311603 75.5387896,57.5935992 76.8139308,56.3184579 L98.0661791,33.7910748 C99.3413204,32.5159335 99.9788814,30.9574509 99.9788814,29.1155801 C99.9788814,27.1320271 99.3413204,25.5027043 98.0661791,24.227563 C84.7481078,10.2010834 77.664025,2.76279653 76.8139308,1.91270235 C75.5387896,0.637561073 73.9803069,0 72.1384362,0 C70.2965655,0 68.7380829,0.637561073 67.4629416,1.91270235 C66.1878003,3.18784362 65.5502392,4.81716636 65.5502392,6.80071945 C65.5502392,8.10856091 65.827408,9.26240676 66.3817511,10.262271 C68.2015642,12.1746569 70.3345271,14.4179851 72.7806397,16.9922556 C74.4169397,18.6667222 76.1155743,20.4409239 77.8765432,22.3148607 C77.9271262,22.3686886 77.9754915,22.4339041 78.0216859,22.5096972 C78.5985488,23.1171518 79.1881637,23.738083 79.7905307,24.3724907 C81.0657453,25.6477053 81.703343,27.2771217 81.703343,29.2607889 C81.703343,31.1027655 81.0657453,32.6613377 79.7905307,33.9365523 L77.4073445,36.4627297 C75.347799,38.8434652 72.9618586,41.372562 70.2495233,44.0500201 L66.6575244,47.857539 Z" id="Combined-Shape"></path>
                <path style="fill:#00aaed;" d="M51.7689379,1.91736807 L73.0730276,24.2866622 C74.3512794,25.564914 74.9903957,27.1982112 74.9903957,29.1866029 C74.9903957,31.0329665 74.3512794,32.5952508 73.0730276,33.8735026 L51.7689379,56.4558377 C50.4906862,57.7340894 48.9639083,58.3732057 47.1885587,58.3732057 C45.413209,58.3732057 43.8864311,57.7340894 42.6081794,56.4558377 C41.3299276,55.1775859 40.6908113,53.5442887 40.6908113,51.555897 C40.6908113,49.5675054 41.3299276,47.9342082 42.6081794,46.6559564 L52.8341424,36.0039116 L6.6042678,36.0039116 C4.75790413,36.0039116 3.19561984,35.3292888 1.91736807,33.9800231 C0.639116299,32.6307573 0,31.0329665 0,29.1866029 C0,27.3402392 0.639116299,25.7424485 1.91736807,24.3931827 C3.19561984,23.0439169 4.75790413,22.3692942 6.6042678,22.3692942 L52.8341424,22.3692942 L42.3951385,11.7172493 C41.1168867,10.4389976 40.4777704,8.80570035 40.4777704,6.8173087 C40.4777704,4.82891705 41.1168867,3.19561984 42.3951385,1.91736807 C43.6733902,0.639116299 45.2356745,0 47.0820382,0 C48.9284019,0 50.4906862,0.639116299 51.7689379,1.91736807 Z" id="ion-arrow-right-c---Ionicons"></path>
            </g>
        </g>
    </g>
</svg>